<?xml version="1.0" encoding="UTF-8" standalone="no"?>
<svg
   xmlns:dc="http://purl.org/dc/elements/1.1/"
   xmlns:cc="http://creativecommons.org/ns#"
   xmlns:rdf="http://www.w3.org/1999/02/22-rdf-syntax-ns#"
   xmlns:svg="http://www.w3.org/2000/svg"
   xmlns="http://www.w3.org/2000/svg"
   version="1.1"
   id="svg80"
   width="591.8996"
   height="567.95782"
   viewBox="0 0 591.8996 567.95783">
  <metadata
     id="metadata86">
    <rdf:RDF>
      <cc:Work
         rdf:about="">
        <dc:format>image/svg+xml</dc:format>
        <dc:type
           rdf:resource="http://purl.org/dc/dcmitype/StillImage" />
        <dc:title></dc:title>
      </cc:Work>
    </rdf:RDF>
  </metadata>
  <defs
     id="defs84" />
  <path
     style="fill:#777777;stroke-width:1.06666672;fill-opacity:1"
     d="M 184.33032,566.96713 C 179.12853,562.59792 7.325317,363.07519 1.717427,354.89064 c -2.37197001,-3.46183 -2.28635001,-7.72692 0.25306,-12.60516 1.13306,-2.17663 27.17306,-36.37938 57.86667,-76.00611 87.325233,-112.74058 86.512243,-111.65485 85.783033,-114.56029 -0.42715,-1.70188 -1.24523,-2.39451 -2.50537,-2.12116 -3.89405,0.84468 -68.272703,11.0219 -74.028523,11.7027 -5.2542,0.62147 -6.31069,0.42593 -8.26667,-1.53005 -1.23343,-1.23343 -2.24259,-3.48677 -2.24259,-5.00741 0,-3.23107 10.43228,-26.26012 30.98024,-68.388288 12.081143,-24.76919 15.117493,-30.19087 17.180523,-30.6774 10.52712,-2.48265 258.08053,-52.3811096 270.43001,-54.5096296 14.59508,-2.51555 14.38194,-2.67512 22.06079,16.5157696 7.32771,18.31333 64.24339,155.779208 78.20748,188.891028 10.74152,25.4704 12.81638,29.57376 14.21586,28.11403 0.48197,-0.50271 6.24912,-16.71519 12.81592,-36.02773 13.18713,-38.7826 14.8804,-43.18262 17.43338,-45.3014 2.48418,-2.06169 6.94683,-1.7966 9.23295,0.54844 1.07237,1.1 15.1857,21.8071 31.36293,46.01579 20.7139,30.99753 29.41007,44.8787 29.40247,46.93334 -0.01,1.60464 -1.6189,7.47753 -3.58437,13.05087 -40.62411,115.19278 -82.92759,233.0554 -88.37164,246.21409 -5.35645,12.94696 8.47871,13.49748 -129.26897,-5.14375 -106.33194,-14.38977 -119.51663,-15.97508 -120.94899,-14.54273 -1.43235,1.43235 0.47408,4.01614 17.48858,23.70219 35.1953,40.72152 35.14186,40.65135 34.10475,44.78349 -1.36628,5.44369 -5.99532,6.21933 -59.80858,10.02154 -48.26438,3.41016 -55.21621,3.65384 -57.18005,2.00432 z m 54.93183,-17.42589 c 20.47015,-1.44536 37.36458,-2.77407 37.54319,-2.95267 0.36544,-0.36544 -36.49834,-41.90385 -39.73277,-44.77122 -1.9947,-1.76833 -2.30994,-1.67121 -7.68495,2.36749 -3.0827,2.3163 -7.37619,4.70341 -9.54109,5.30468 -4.56745,1.26857 -11.92584,1.42389 -13.6818,0.2888 -0.66677,-0.43102 -4.23163,-4.86081 -7.92191,-9.84399 -13.25642,-17.9008 -14.99547,-22.16103 -10.65114,-26.0926 1.14473,-1.03597 7.14473,-3.07041 13.33334,-4.521 9.64087,-2.25979 11.25202,-2.94154 11.25202,-4.76118 0,-5.48492 -21.90478,-104.29074 -25.38371,-114.49824 -0.59985,-1.76 -4.9473,-22.88 -9.66099,-46.93333 -12.41881,-63.37134 -26.00031,-127.5675 -26.91653,-127.22732 -0.43551,0.16168 -22.5212,28.37398 -49.07932,62.69398 -76.197573,98.46708 -84.159453,108.86763 -84.159453,109.93704 0,0.55368 11.43818,14.32435 25.41818,30.6015 45.29799,52.74121 130.262293,150.90228 140.286613,162.07611 9.60397,10.70529 9.83952,10.88194 14.56188,10.92059 2.64,0.0217 21.54829,-1.14327 42.01844,-2.58864 z m 247.54087,-50.41326 c 3.78065,-9.78949 46.43874,-130.28321 73.63254,-207.98539 l 14.64716,-41.85205 -5.104,-8.28128 c -9.031,-14.65269 -37.60629,-57.63462 -38.81226,-58.37995 -0.68435,-0.42294 -1.77846,0.74481 -2.64395,2.8219 -1.52755,3.66599 -17.97386,49.79018 -19.1899,53.81867 -0.5952,1.97177 -0.149,2.37249 3.34548,3.00445 2.21775,0.40107 7.23668,2.19187 11.15317,3.97955 11.07442,5.05491 11.63368,8.50799 4.36542,26.95422 -5.85664,14.86364 -9.90208,19.06452 -16.476,17.10903 -1.36234,-0.40525 -6.63039,-5.10811 -11.70677,-10.45082 l -9.22981,-9.71399 -7.27905,6.3545 c -7.58375,6.62048 -102.4596,91.75587 -154.96495,139.05543 -16.66699,15.01449 -37.22247,33.52822 -45.67886,41.14163 -12.65065,11.38956 -15.03049,13.98267 -13.42973,14.63323 1.07004,0.43487 46.58553,6.82584 101.14553,14.20214 54.55999,7.3763 101.83999,13.81338 105.06666,14.30464 9.07335,1.3814 10.38177,1.29745 11.15932,-0.71591 z m -266.89265,-9.06863 c 4.56232,-3.54792 4.60839,-3.698 2.10961,-6.87322 -1.77982,-2.26165 -2.05667,-2.29149 -8.08254,-0.87151 -3.43178,0.80869 -6.48258,1.71332 -6.77955,2.01029 -0.97972,0.97972 6.36976,10.21895 7.57569,9.52361 0.64723,-0.37319 2.97679,-2.07832 5.17679,-3.78917 z m 35.3283,-31.42887 c 16.02657,-13.79051 27.33837,-24.08489 27.33837,-24.87945 0,-1.29837 -72.70883,-63.06978 -73.41081,-62.3678 -0.42319,0.42318 17.42284,83.59993 19.42984,90.55857 1.15211,3.99462 1.64219,4.44409 5.48967,5.03481 9.71612,1.49179 9.72302,1.48906 21.15293,-8.34613 z m 52.20257,-45.9025 c 21.24559,-18.46029 64.89254,-58.06547 64.46372,-58.49429 -0.55905,-0.55906 -153.26759,1.27841 -153.84026,1.85108 -0.81919,0.81919 75.69409,65.97655 77.47523,65.97655 0.63786,0 5.99346,-4.20001 11.90131,-9.33334 z m 77.22195,-74.31384 c 0.29024,-0.22425 -7.622,-12.69849 -46.06147,-72.6195 -38.53419,-60.06863 -43.53502,-67.67805 -44.49785,-67.70931 -1.88943,-0.0613 -86.45538,139.48931 -85.4826,141.0633 0.45588,0.7376 175.07967,0.009 176.04192,-0.73449 z m 72.54693,-60.15625 c 20.48925,-18.6039 23.76798,-21.99976 23.17215,-24 -1.8407,-6.17932 -2.89151,-6.73196 -29.63237,-15.5845 -14.30797,-4.73664 -26.47187,-8.61208 -27.03092,-8.61208 -0.55904,0 -4.2748,19.56 -8.25724,43.46667 -3.98244,23.90667 -7.51234,44.89499 -7.84423,46.64071 -0.67591,3.55532 2.13639,1.17864 49.59261,-41.9108 z M 206.3168,310.59465 c 2.81848,-4.69334 19.71583,-32.70755 37.54968,-62.25381 17.83384,-29.54625 32.16191,-53.98374 31.84013,-54.30551 -0.78746,-0.78746 -89.82059,23.6053 -96.22488,26.36311 l -2.29531,0.98841 6.75112,32.87056 c 7.81323,38.04188 13.10747,62.95568 13.98043,65.78951 0.81064,2.63156 1.83343,1.48049 8.39883,-9.45227 z m 193.52612,-38.50776 c 4.25991,-25.57926 7.33776,-46.8933 6.83969,-47.36455 -0.49807,-0.47124 -18.42558,-6.45371 -39.83891,-13.2944 -21.41333,-6.84068 -42.49789,-13.60208 -46.85456,-15.02533 -4.35667,-1.42325 -8.06834,-2.44062 -8.24816,-2.26081 -0.27642,0.27643 26.08443,41.80085 69.01336,108.71196 5.54915,8.64917 10.37149,15.72917 10.71633,15.73333 0.34483,0.004 4.11235,-20.92094 8.37225,-46.5002 z m 114.7198,-6.42251 c 0.88787,-2.12498 1.61431,-4.4581 1.61431,-5.1847 0,-0.7266 -2.71113,-2.09234 -6.02474,-3.03499 -5.88293,-1.67354 -7.84192,-1.58025 -7.84192,0.37344 0,1.18194 8.75858,11.52199 9.85235,11.63131 0.43213,0.0432 1.51213,-1.66009 2.4,-3.78506 z m -52.94159,-56.1364 C 448.30511,176.8667 383.70432,21.618552 382.23089,18.737962 l -1.42708,-2.79003 -23.78005,4.74412 c -65.51711,13.07065 -205.38195,41.50626 -223.13229,45.36452 l -20.15223,4.38034 -6.5964,13.94554 C 92.036757,116.3184 79.585967,143.6887 80.000517,144.04883 c 0.39155,0.34016 23.315763,-3.3855 51.699253,-8.40219 l 9.65608,-1.70668 -0.45376,-12.7266 c -0.64071,-17.97043 -0.25238,-18.40627 19.41467,-21.789238 12.53329,-2.15588 19.69243,-2.11203 22.17629,0.13584 2.71532,2.457338 2.50353,8.517618 -0.70276,20.108848 -1.45937,5.27587 -2.65937,10.36132 -2.66667,11.30099 -0.0146,1.88745 23.06678,9.76431 168.52008,57.50985 44.88,14.73201 90,29.59672 100.26667,33.03269 10.26666,3.43597 19.23946,6.28511 19.93956,6.33142 0.7223,0.0478 -1.97192,-7.87457 -6.2288,-18.31578 z m -267.04409,-9.88275 c 37.22342,-10.14234 71.49271,-19.94996 72.2771,-20.68517 0.66322,-0.62163 -73.25721,-25.43197 -89.77535,-30.13181 l -4.69824,-1.33678 -4.10176,4.6221 c -2.25596,2.54216 -4.10175,5.50425 -4.10175,6.58243 0,1.83604 8.14844,42.61449 9.08804,45.48066 0.23716,0.72344 1.04938,1.11151 1.80492,0.86238 0.75554,-0.24914 9.53371,-2.67635 19.50704,-5.39381 z m -30.14725,-75.71726 c 1.06229,-3.52 2.19829,-7.25876 2.52445,-8.30835 0.62111,-1.99875 0.8186,-1.99141 -7.31053,-0.27158 -2.58556,0.54701 -2.93334,1.10822 -2.93334,4.73359 0,7.62728 1.11458,10.9252 3.57172,10.56828 1.69191,-0.24576 2.67322,-1.83612 4.1477,-6.72194 z"
     id="path90" />
</svg>
