<?xml version="1.0" encoding="UTF-8" standalone="no"?>
<!-- Created with Inkscape (http://www.inkscape.org/) -->

<svg
   version="1.1"
   id="svg231"
   width="495.00137"
   height="487.60944"
   viewBox="0 0 495.00137 487.60944"
   xmlns="http://www.w3.org/2000/svg"
   xmlns:svg="http://www.w3.org/2000/svg">
  <defs
     id="defs235" />
  <g
     id="g237"
     transform="translate(-31.266329,-35.418629)">
    <path
       style="fill:#767676;fill-opacity:1"
       d="m 248.5,521.43537 c -15.47633,-3.33601 -46.16824,-2.56916 -46.32326,-23.37146 2.14328,-32.70749 40.39604,-13.73308 60.19307,-13.44443 8.70456,1.72852 4.68926,-28.74603 22.76552,-16.00212 4.81915,9.81826 -0.40248,23.33513 16.50679,15.59694 37.86672,-4.84633 75.72001,-19.03851 105.82065,-43.67672 10.35569,-11.07648 22.53883,-17.94742 32.74653,-31.55993 10.79141,-12.69782 17.14965,-25.70211 25.72367,-38.98927 7.6503,-17.31937 13.54978,-32.48675 17.78302,-50.48094 9.99137,-46.9678 1.61622,-97.38736 -21.81736,-139.20117 -7.44652,-11.18158 -15.74018,-23.75785 -25.25561,-34.9755 -18.37243,-10.79416 -22.99169,-41.95557 4.44826,-42.40588 21.60911,3.34529 30.32615,25.67204 43.35812,40.77168 8.54866,12.4199 16.63811,21.97586 19.93515,35.07774 8.62677,15.33741 13.24804,34.55528 17.10408,52.61269 9.16199,41.68074 4.28578,85.16965 -7.29481,125.79839 -1.98879,8.38756 -6.83697,13.06538 -10.36532,25.62915 -7.6563,11.66447 -13.10374,23.84549 -22.43393,35.04267 -14.94296,23.18568 -35.59102,41.75448 -57.28126,58.71282 -12.62088,9.41394 -28.85289,17.70884 -41.93161,25.04227 -42.15955,17.40268 -88.17787,24.98354 -133.6817,19.82307 z M 145.70193,486.15373 C 123.00641,472.01006 103.29265,452.27004 85.795455,432.25 74.609336,420.47787 66.31139,403.26043 56.986988,389 43.736536,359.25897 32.522977,326.60128 31.837326,293.16914 28.578148,249.67012 39.506884,205.96012 58.595931,167.04942 67.252242,151.32424 79.133834,133.2977 92.286552,119.14281 107.13702,100.89827 126.72778,85.947196 146.08259,72.737468 179.80385,50.920011 219.39393,38.609975 259.61447,36.056904 295.74644,33.505117 332.21045,38.593353 365.9562,51.527073 383.97022,55.684912 415.09544,76.692238 392.09569,95.1271 367.19616,103.86306 345.61744,78.917686 320.52485,77.918663 304.58463,74.048793 283.46094,66.912385 286.83333,91 c -14.14999,14.7819 -19.744,-9.604317 -20.21946,-17.71284 -25.01931,1.625221 -49.8353,7.660583 -73.14058,17.288593 C 185.59015,95.240337 175.96801,98.982546 168,103.993 c -18.64924,11.3956 -36.45816,26.94996 -50.50899,44.67305 -1.17946,6.60905 -12.9241,14.62396 -18.065403,25.21358 -4.871658,9.72487 -10.187372,18.67223 -14.114521,28.6719 -5.203931,13.489 -10.351017,27.37632 -11.568534,42.34242 -5.847116,19.21997 -2.662002,42.38287 -2.031437,62.95234 2.96422,20.80799 9.839377,39.96605 18.109433,58.78265 9.575895,19.73985 21.439522,34.61562 34.590182,50.95271 14.87653,18.08213 39.08007,28.60957 49.47308,50.02907 1.31795,13.32398 -15.02134,25.27877 -28.18188,18.54301 z m 33.19864,-58.89742 c -19.21566,1.52255 -16.26675,-38.10685 -5.77637,-44.84682 18.48963,-6.28412 30.8149,9.30997 25.704,23.46009 10.44045,12.41051 -7.89102,26.06471 -19.92763,21.38673 z m 10.08886,-12.74358 c 0.1627,-14.00205 -23.01955,4.78101 -2.18843,1.09777 z m -2.07679,-15.90747 c 0.12462,-15.56723 -21.22076,6.61661 0,0 z m 38.70779,26.67103 c -3.22665,-10.03073 -6.28614,-56.3112 10.54416,-37.15341 -0.43523,14.2736 -5.39121,31.53195 15.92689,27.9265 13.73208,14.70309 -21.24129,12.12487 -26.47105,9.22691 z m 62.26291,0.56012 c -31.55874,-10.63274 -5.26829,-58.79217 21.44166,-40.13861 16.76614,11.22295 10.95009,43.67607 -12.16204,41.53301 l -4.92336,-0.16616 z M 301,414.26989 c 20.24213,-17.056 -22.63363,-30.45143 -13.90586,-3.5607 2.5196,4.85728 9.37385,6.49169 13.90586,3.5607 z m 55.29654,12.70191 c -28.86397,-3.69158 -19.86785,-51.24251 8.21692,-44.50775 18.25554,-3.44656 6.38067,19.22949 -8.67682,13.0607 -9.3192,5.95165 -5.24092,21.06714 8.38152,20.23213 -12.43133,-7.52074 -1.24408,-19.58252 13.11402,-14.01406 8.43723,11.16071 -0.82931,32.01105 -21.03564,25.22898 z M 146.42967,413.0353 c -18.51971,-17.37295 26.27924,-18.03515 7.15415,-0.012 -2.19559,1.23688 -4.92595,0.99525 -7.15415,0.012 z m 248.30139,0.27173 c -17.73317,-12.80824 18.0879,-21.68251 11.26895,-4.87961 -1.50229,4.24758 -7.04915,6.67464 -11.26895,4.87961 z m -169.23357,-53.3525 c -14.28669,-2.37506 -19.6936,-16.76618 -17.48386,-29.34108 -0.96311,-17.56072 2.33936,-34.72171 0.91483,-52.11345 -9.24428,11.4022 -14.75072,24.77008 -26.22315,36.5 -9.22265,25.83782 -23.48533,-10.93637 -33.61067,-19 -15.97866,-29.395 -7.8922,23.93574 -10.02552,33.38102 8.42039,24.91408 -29.1206,43.16759 -39.992808,18.0564 -4.730255,-10.69852 -0.964955,-23.39348 -2.145666,-34.92614 0.674461,-33.96132 -1.711053,-68.24603 1.99875,-101.92594 7.046204,-18.11566 34.290054,-16.97567 40.974614,-0.61803 7.32046,9.60898 15.16668,20.12098 20.51624,29.30571 7.64908,5.8535 12.77783,27.99261 21.2429,7.6844 16.08164,-16.93443 25.13263,-55.00482 54.4156,-48.16553 20.86995,5.5634 12.63395,33.0485 14.29516,50.18994 -0.81587,32.5327 1.53654,65.5211 -1.12988,97.77102 -4.11481,10.36113 -12.7103,14.19655 -23.74654,13.20168 z M 346.5,359 c -28.68281,-12.98389 -2.84566,-40.86313 8.3136,-57.16667 14.64784,-13.59597 20.75832,-29.67085 3.08539,-44.309 -12.82961,-15.577 -39.96401,-43.71924 -11.86036,-58.35861 23.02307,-10.19579 29.54884,14.60084 42.26369,26.97564 3.26932,3.54649 9.38489,22.13509 15.98181,2.29782 8.61599,-19.18498 34.91308,-45.70226 52.56829,-21.1787 9.7203,16.86407 -6.04993,27.96227 -14.87331,40.48952 -6.19467,12.84734 -13.76169,17.27553 -20.87366,30.87706 5.68864,12.24976 18.3235,23.27517 25.45069,35.7813 18.05354,13.38107 16.85153,47.74659 -11.38669,45.47488 -19.59892,-5.09153 -26.16092,-27.73223 -38.52082,-41.83828 -4.68158,7.53608 -6.61412,8.2499 -11.5772,15.45504 -8.18596,13.69813 -18.08967,31.34342 -38.57143,25.5 z m -60,-64.66163 c -26.05082,-11.00388 2.76293,-50.27267 20.76297,-28.70746 13.36675,12.56165 -2.28397,37.65558 -20.76297,28.70746 z M 206.03071,171.72815 c -31.919,-9.17557 0.66182,-53.3308 17.92968,-32.76168 15.62498,11.93883 3.99873,35.98068 -14.804,33.14017 l -3.12568,-0.37854 z m 68.67313,-0.16897 c -33.17341,-9.64815 1.47592,-56.97562 20.58991,-29.04876 10.83009,13.27458 -3.92423,34.80617 -20.58991,29.04876 z M 344.5,171.97055 c -27.83295,-5.19965 -13.41731,-49.6973 12.79842,-36.12555 19.1218,11.0148 9.38911,40.75452 -12.79842,36.12555 z m -181.29881,-9.09183 c -19.33949,-0.53656 2.97362,-33.98348 10.70198,-9.82174 0.4373,5.56446 -5.30886,10.66767 -10.70198,9.82174 z m 227.37218,-0.56693 c -21.29783,-16.99485 24.87731,-24.25716 11.21418,-1.06179 -3.32359,2.0521 -7.60066,0.78181 -11.21418,1.06179 z"
       id="path241" />
  </g>
</svg>
